<svg width="121" height="53" viewBox="0 0 121 53" fill="none" xmlns="http://www.w3.org/2000/svg">
<g clip-path="url(#clip0_177_3441)">
<path d="M0.668495 37.5227L0 26.949H1.78106C3.3377 29.9062 4.50757 31.9326 5.95438 33.9049C7.79036 36.3708 9.40429 36.9726 12.52 36.9726C16.8604 36.9726 18.9184 34.6171 18.9184 31.1662C18.9184 27.934 17.1946 26.0181 10.684 23.4981C2.67159 20.4868 0.279335 16.9818 0.279335 11.3941C0.279335 4.7109 5.78487 0 14.0742 0C18.8587 0 21.8073 0.547725 23.8653 1.31407L24.4216 10.6818H22.6978C21.251 7.8327 20.4178 6.51863 18.8038 4.65683C17.357 2.90318 16.3566 2.24732 13.3508 2.24732C9.51173 2.24732 7.45372 4.16553 7.45372 7.39546C7.45372 10.4091 8.51138 11.9959 14.9647 14.4077C23.531 17.6941 26.704 21.0369 26.704 26.5141C26.704 33.5264 21.4754 39.2763 12.0162 39.2763C6.84253 39.2763 2.89363 38.4536 0.666108 37.5227H0.668495Z" fill="#EE3341"/>
<path d="M31.4884 31.9891V16.3237C31.4884 14.0223 31.3761 13.8037 29.7646 12.8728L27.8164 11.7773V10.6278L39.7228 9.42188L40.3913 9.91553V29.8546C40.3913 33.0869 41.671 34.3469 44.1754 34.3469C46.1785 34.3469 48.0694 33.6887 49.404 33.2514V16.326C49.404 14.0246 49.2369 13.752 47.623 12.8751L45.7321 11.7797V10.6302L57.5811 9.42423L58.2496 9.91788V32.0478C58.2496 34.7324 58.4168 35.0615 60.0856 35.7174L61.6996 36.3756V37.6896L50.1847 39.2787L49.5735 38.8415L49.6857 35.172H49.4064C46.4579 37.3088 43.0653 39.2811 38.7797 39.2811C34.4942 39.2811 31.4931 36.8152 31.4931 31.9961L31.4884 31.9891Z" fill="#EE3341"/>
<path d="M62.8652 36.2626L78.7205 12.7081V12.4895H76.0513C71.9902 12.4895 71.0448 12.7081 69.7101 14.1326C68.2633 15.6653 67.4301 17.1463 65.8162 19.8849H64.3144L64.9256 10.1904H88.5689V12.3813L72.7685 36.1004V36.319H75.495C80.6138 36.319 81.7263 35.9358 83.1159 34.2386C84.4505 32.5954 85.6752 30.7877 86.9 28.5427H88.4567L87.5661 38.6227H62.8652V36.2673V36.2626Z" fill="#EE3341"/>
<path d="M90.7363 45.9571C90.7363 43.9308 92.1282 42.7249 94.2411 42.7249C96.4662 42.7249 97.4117 43.5476 97.968 45.5176C98.19 46.3403 98.4693 46.613 99.0256 46.613C100.193 46.613 101.418 45.2989 103.366 40.9171L103.977 39.4926L93.6299 16.3212C92.016 12.7599 91.6817 12.3226 90.4593 11.9395L89.459 11.6103V10.1858H105.871V11.6103L104.369 11.9935C103.256 12.3226 102.645 12.8703 102.645 14.1303C102.645 14.9531 102.924 15.9921 103.423 17.1981L108.318 29.4126H108.54L113.212 17.1981C113.713 15.884 113.99 14.7886 113.99 13.9117C113.99 12.8163 113.379 12.3226 112.209 11.9935L110.653 11.6103V10.1858H121V11.6103L119.72 12.0476C118.328 12.4848 117.997 13.2535 116.495 16.869L106.147 41.4084C103.922 46.5566 101.864 50.0075 96.4686 50.0075C93.1309 50.0075 90.7387 48.3643 90.7387 45.9548L90.7363 45.9571Z" fill="#EE3341"/>
<path d="M1.4897 49.9487V43.014C1.4897 42.431 1.45388 42.3698 1.11486 42.2029L0.666016 41.989V41.714L3.32806 41.4766L3.46176 41.5729C3.46176 41.5729 3.42595 42.1324 3.42595 42.9669V43.7779C3.42595 44.4338 3.39013 44.9345 3.39013 44.9345H3.44982C3.92254 44.5302 4.5982 44.1353 5.45769 44.1353C6.59413 44.1353 7.81653 44.8851 7.81653 47.0666C7.81653 49.5443 6.30286 50.628 4.2353 50.628C3.04872 50.628 2.20117 50.4024 1.48731 49.9487H1.4897ZM5.83492 47.471C5.83492 45.7667 5.31444 45.1719 4.39526 45.1719C3.92254 45.1719 3.60978 45.3153 3.42833 45.3859V49.723C3.63366 49.9722 3.97268 50.1508 4.38333 50.1508C5.33832 50.1508 5.83492 49.6501 5.83492 47.471Z" fill="#EE3341"/>
<path d="M8.23167 50.1627L8.54681 50.0804C8.94552 49.9723 8.99566 49.9135 8.99566 49.401V45.6962C8.99566 45.1838 8.93597 45.1485 8.59695 44.9228L8.19824 44.6619V44.4245L10.7505 44.1377L10.8842 44.2341L10.8603 45.0568H10.908C11.2829 44.6643 11.9729 44.14 12.6748 44.14C13.2549 44.14 13.6059 44.4503 13.6059 45.0333C13.6059 45.6163 13.243 45.9266 12.7703 45.9266C12.214 45.9266 12.0684 45.7597 11.8392 45.3906C11.7675 45.259 11.6935 45.2355 11.5861 45.2355C11.3688 45.2355 11.0895 45.3906 10.92 45.5458V49.4057C10.92 49.9652 10.9677 50.0263 11.3306 50.0851L11.7293 50.1674V50.4894H8.23167V50.1674V50.1627Z" fill="#EE3341"/>
<path d="M13.7881 49.0553C13.7881 48.0068 14.5998 47.5414 15.9655 47.2193L17.1879 46.9208V45.8841C17.1879 44.8945 16.9945 44.5983 16.3284 44.5983C15.9655 44.5983 15.8437 44.6946 15.8198 45.0261C15.7601 45.776 15.5047 46.0745 14.8768 46.0745C14.3444 46.0745 14.0531 45.7995 14.0531 45.3364C14.0531 44.5748 15.0463 44.1328 16.7271 44.1328C18.2407 44.1328 19.1241 44.5983 19.1241 45.7642V49.0647C19.1241 49.5066 19.1719 49.6853 19.4034 49.8028C19.561 49.8874 19.8022 49.911 19.9717 49.9227V50.2095C19.7425 50.3882 19.2578 50.6256 18.5559 50.6256C17.854 50.6256 17.4314 50.3646 17.2977 49.8992H17.238C16.9348 50.28 16.3904 50.6256 15.605 50.6256C14.4685 50.6256 13.7905 50.0543 13.7905 49.0529L13.7881 49.0553ZM17.1879 49.4361V47.5296L16.6316 47.5767C16.0156 47.6237 15.6885 47.8987 15.6885 48.7567C15.6885 49.5325 16.0395 49.7817 16.5122 49.7817C16.8512 49.7817 17.0804 49.6383 17.1902 49.4361H17.1879Z" fill="#EE3341"/>
<path d="M20.1526 50.1626L20.4677 50.0803C20.8664 49.9722 20.9166 49.9134 20.9166 49.4009V45.6962C20.9166 45.1837 20.8569 45.1484 20.5179 44.9228L20.1191 44.6618V44.4244L22.6714 44.1376L22.8051 44.2199L22.7812 44.9815H22.8289C23.4712 44.5278 24.2686 44.1353 25.152 44.1353C26.181 44.1353 26.7372 44.6595 26.7372 45.7314V49.4009C26.7372 49.9251 26.785 49.9839 27.1718 50.0803L27.4869 50.1626V50.4846H24.111V50.1626L24.4023 50.0921C24.7652 49.998 24.801 49.9604 24.801 49.4009V46.1969C24.801 45.4705 24.536 45.2448 23.9654 45.2448C23.5428 45.2448 23.1059 45.3388 22.8409 45.4V49.4033C22.8409 49.9745 22.8767 49.998 23.2396 50.0944L23.5309 50.1649V50.487H20.155V50.1649L20.1526 50.1626Z" fill="#EE3341"/>
<path d="M27.8857 47.6026C27.8857 45.1249 29.5068 44.1352 31.3953 44.1352C31.7224 44.1352 32.0615 44.194 32.3145 44.2668C32.3145 44.2668 32.2906 43.8249 32.2906 43.3971V43.0162C32.2906 42.4568 32.231 42.4097 31.9158 42.2546L31.4192 41.9937V41.7186L34.129 41.4812L34.2508 41.5776C34.2508 41.5776 34.215 42.1371 34.215 42.9716V49.06C34.215 49.643 34.2508 49.7159 34.6137 49.8593L34.9646 50.0027V50.2895L32.4602 50.635L32.3265 50.5386L32.3503 49.8593H32.3026C31.7821 50.3012 31.1041 50.6327 30.2565 50.6327C29.058 50.6327 27.8857 49.7746 27.8857 47.6073V47.6026ZM32.2906 49.4244V45.1108C32.0853 44.8616 31.7941 44.61 31.3476 44.61C30.4762 44.61 29.8721 45.2424 29.8721 47.2076C29.8721 49.1729 30.3568 49.6853 31.276 49.6853C31.7726 49.6853 32.0996 49.4949 32.293 49.4244H32.2906Z" fill="#EE3341"/>
<path d="M37.7981 50.1627L38.1132 50.0804C38.5119 49.9723 38.5621 49.9135 38.5621 49.401V45.6962C38.5621 45.1838 38.5024 45.1485 38.1634 44.9228L37.7646 44.6619V44.4245L40.3169 44.1377L40.4506 44.2341L40.4267 44.984H40.4744C41.1167 44.5303 41.8544 44.1377 42.702 44.1377C43.4516 44.1377 43.9005 44.4362 44.1297 44.9957H44.1894C44.8435 44.542 45.5693 44.1377 46.4766 44.1377C47.3838 44.1377 47.9759 44.6737 47.9759 45.7339V49.4034C47.9759 49.9276 48.0237 49.9864 48.4104 50.0827L48.7256 50.165V50.4871H45.3855V50.165L45.6648 50.0945C46.0039 50.0005 46.0397 49.9629 46.0397 49.4034V46.1993C46.0397 45.4964 45.8463 45.2472 45.29 45.2472C44.8793 45.2472 44.4783 45.3413 44.2132 45.4142C44.2252 45.5105 44.2371 45.6516 44.2371 45.8185V49.4057C44.2371 49.9652 44.2849 50.0005 44.6 50.0968L44.8793 50.1674V50.4894H41.6491V50.1674L41.9284 50.0968C42.2555 50.0028 42.3033 49.9652 42.3033 49.4057V46.2017C42.3033 45.4988 42.1099 45.2496 41.5536 45.2496C41.1429 45.2496 40.7538 45.3436 40.4888 45.4047V49.4081C40.4888 49.9793 40.5365 50.0028 40.8636 50.0992L41.1429 50.1697V50.4918H37.8028V50.1697L37.7981 50.1627Z" fill="#EE3341"/>
<path d="M49.0527 49.0553C49.0527 48.0068 49.8645 47.5414 51.2301 47.2193L52.4525 46.9208V45.8841C52.4525 44.8945 52.2591 44.5983 51.593 44.5983C51.2301 44.5983 51.1084 44.6946 51.0845 45.0261C51.0248 45.776 50.7693 46.0745 50.1414 46.0745C49.609 46.0745 49.3177 45.7995 49.3177 45.3364C49.3177 44.5748 50.3109 44.1328 51.9917 44.1328C53.5054 44.1328 54.3888 44.5983 54.3888 45.7642V49.0647C54.3888 49.5066 54.4365 49.6853 54.6681 49.8028C54.8257 49.8874 55.0668 49.911 55.2363 49.9227V50.2095C55.0071 50.3882 54.5225 50.6256 53.8205 50.6256C53.1186 50.6256 52.696 50.3646 52.5623 49.8992H52.5026C52.1994 50.28 51.6551 50.6256 50.8696 50.6256C49.7332 50.6256 49.0551 50.0543 49.0551 49.0529L49.0527 49.0553ZM52.4549 49.4361V47.5296L51.8986 47.5767C51.2826 47.6237 50.9556 47.8987 50.9556 48.7567C50.9556 49.5325 51.3065 49.7817 51.7792 49.7817C52.1183 49.7817 52.3475 49.6383 52.4573 49.4361H52.4549Z" fill="#EE3341"/>
<path d="M55.4201 50.1626L55.7353 50.0803C56.134 49.9722 56.1841 49.9134 56.1841 49.4009V45.6962C56.1841 45.1837 56.1245 45.1484 55.7854 44.9228L55.3867 44.6618V44.4244L57.9389 44.1376L58.0726 44.2199L58.0488 44.9815H58.0965C58.7387 44.5278 59.5362 44.1353 60.4195 44.1353C61.4485 44.1353 62.0048 44.6595 62.0048 45.7314V49.4009C62.0048 49.9251 62.0526 49.9839 62.4393 50.0803L62.7545 50.1626V50.4846H59.3786V50.1626L59.6699 50.0921C60.0328 49.998 60.0686 49.9604 60.0686 49.4009V46.1969C60.0686 45.4705 59.8036 45.2448 59.233 45.2448C58.8104 45.2448 58.3735 45.3388 58.1084 45.4V49.4033C58.1084 49.9745 58.1443 49.998 58.5072 50.0944L58.7984 50.1649V50.487H55.4225V50.1649L55.4201 50.1626Z" fill="#EE3341"/>
<path d="M63.082 49.0553C63.082 48.0068 63.8938 47.5414 65.2594 47.2193L66.4818 46.9208V45.8841C66.4818 44.8945 66.2884 44.5983 65.6223 44.5983C65.2594 44.5983 65.1377 44.6946 65.1138 45.0261C65.0541 45.776 64.7986 46.0745 64.1707 46.0745C63.6383 46.0745 63.347 45.7995 63.347 45.3364C63.347 44.5748 64.3402 44.1328 66.021 44.1328C67.5347 44.1328 68.4181 44.5983 68.4181 45.7642V49.0647C68.4181 49.5066 68.4658 49.6853 68.6974 49.8028C68.855 49.8874 69.0961 49.911 69.2656 49.9227V50.2095C69.0364 50.3882 68.5518 50.6256 67.8498 50.6256C67.1479 50.6256 66.7253 50.3646 66.5916 49.8992H66.5319C66.2287 50.28 65.6844 50.6256 64.8989 50.6256C63.7625 50.6256 63.0844 50.0543 63.0844 49.0529L63.082 49.0553ZM66.4818 49.4361V47.5296L65.9255 47.5767C65.3072 47.6237 64.9825 47.8987 64.9825 48.7567C64.9825 49.5325 65.3334 49.7817 65.8061 49.7817C66.1452 49.7817 66.3744 49.6383 66.4842 49.4361H66.4818Z" fill="#EE3341"/>
<path d="M69.1557 51.606C69.1557 51.0465 69.7001 50.6164 70.6813 50.4024V50.3554C70.0152 50.212 69.6404 49.7842 69.6404 49.2106C69.6404 48.543 70.1728 48.0799 70.5715 47.7931V47.7461C69.9913 47.4593 69.6046 46.9351 69.6046 46.2205C69.6046 44.8617 70.7911 44.1353 72.2069 44.1353C72.7871 44.1353 73.2479 44.2317 73.6943 44.4221C74.0692 44.0883 74.5538 43.8274 75.0743 43.8274C75.5231 43.8274 75.8359 44.0413 75.8359 44.4715C75.8359 44.8406 75.6783 45.1509 75.2438 45.1509C74.869 45.1509 74.7472 44.984 74.6254 44.723C74.5156 44.4974 74.2506 44.5209 73.9593 44.6643V44.6995C74.432 44.9746 74.8069 45.4494 74.8069 46.07C74.8069 47.4287 73.6203 48.1316 72.2045 48.1316C71.7557 48.1316 71.3212 48.0611 70.9583 47.9294C70.8365 48.0376 70.6909 48.2515 70.6909 48.4537C70.6909 48.6911 70.8604 48.858 71.2949 48.858H73.4126C74.561 48.858 75.4587 49.2153 75.4587 50.4659C75.4587 51.8364 74.284 53.0047 71.9013 53.0047C70.1107 53.0047 69.1533 52.4923 69.1533 51.6107L69.1557 51.606ZM74.2148 51.284C74.2148 50.7598 73.8996 50.4965 73.15 50.4965H71.1158C70.8986 50.6046 70.6192 50.9008 70.6192 51.378C70.6192 52.0809 71.0418 52.5346 72.1568 52.5346C73.5606 52.5346 74.2148 52.0574 74.2148 51.284ZM73.0163 46.1852C73.0163 44.9463 72.7632 44.589 72.2045 44.589C71.6459 44.589 71.3928 44.9464 71.3928 46.0912C71.3928 47.33 71.6459 47.6638 72.2045 47.6638C72.7632 47.6638 73.0163 47.33 73.0163 46.1875V46.1852Z" fill="#EE3341"/>
<path d="M75.9219 47.3627C75.9219 45.2894 77.4833 44.1328 79.0805 44.1328C80.6777 44.1328 81.7903 44.9556 81.8285 47.1112H77.8343C77.8701 49.0647 78.6197 49.6007 79.8684 49.6007C80.6181 49.6007 81.1863 49.3867 81.6471 49.147V49.5395C81.2245 50.005 80.3029 50.6232 79.0829 50.6232C76.9771 50.6232 75.9243 49.3844 75.9243 47.358L75.9219 47.3627ZM77.8343 46.6599L79.9042 46.5517C79.9042 45.1107 79.7108 44.5865 78.985 44.5865C78.369 44.5865 77.8844 45.1577 77.8366 46.6599H77.8343Z" fill="#EE3341"/>
<path d="M82.1916 50.1627L82.5068 50.0804C82.9055 49.9723 82.9556 49.9135 82.9556 49.401V45.6962C82.9556 45.1838 82.8959 45.1485 82.5569 44.9228L82.1582 44.6619V44.4245L84.7104 44.1377L84.8441 44.2341L84.8202 45.0568H84.868C85.2428 44.6643 85.9328 44.14 86.6347 44.14C87.2149 44.14 87.5658 44.4503 87.5658 45.0333C87.5658 45.6163 87.203 45.9266 86.7302 45.9266C86.1739 45.9266 86.0283 45.7597 85.7991 45.3906C85.7275 45.259 85.6535 45.2355 85.546 45.2355C85.3288 45.2355 85.0494 45.3906 84.8799 45.5458V49.4057C84.8799 49.9652 84.9277 50.0263 85.2906 50.0851L85.6893 50.1674V50.4894H82.1916V50.1674V50.1627Z" fill="#EE3341"/>
</g>
<defs>
<clipPath id="clip0_177_3441">
<rect width="121" height="53" fill="white"/>
</clipPath>
</defs>
</svg>
